<?xml version="1.0" encoding="UTF-8"?>
<svg id="Layer_2" data-name="Layer 2" xmlns="http://www.w3.org/2000/svg" viewBox="0 0 91.2 91.2">
  <defs>
    <style>
      .cls-1 {
        stroke-width: .69px;
      }

      .cls-1, .cls-2 {
        fill: none;
        stroke: #b10b3a;
        stroke-miterlimit: 10;
      }

      .cls-2 {
        stroke-width: 2.87px;
      }
    </style>
  </defs>
  <g id="Layer_7" data-name="Layer 7">
    <polygon class="cls-2" points="45.6 3.97 53.93 25.48 75.03 16.16 65.72 37.26 87.22 45.6 65.72 53.93 75.03 75.03 53.93 65.72 45.6 87.22 37.26 65.72 16.16 75.03 25.48 53.93 3.97 45.6 25.48 37.26 16.16 16.16 37.26 25.48 45.6 3.97"/>
    <g>
      <circle class="cls-1" cx="45.26" cy="33.53" r="2.82"/>
      <g>
        <polyline class="cls-1" points="45.61 36.32 43.08 41.5 40.3 40.15 42.83 34.95"/>
        <path class="cls-1" d="M36.1,55.1c-.52.81-2.6,4-3.14,3.73-.54-.27.72-3.83,1.05-4.75l6.69-13.73,2.09,1.02-6.69,13.73Z"/>
      </g>
      <g>
        <polyline class="cls-1" points="47.54 35.08 49.79 40.4 46.94 41.61 45.12 37.32"/>
        <path class="cls-1" d="M53.19,55.55c.48.84,2.39,4.13,2.94,3.89.55-.24-.52-3.87-.8-4.8l-5.95-14.07-2.14.91,5.95,14.07Z"/>
      </g>
    </g>
  </g>
</svg>